<svg xmlns="http://www.w3.org/2000/svg" viewBox="0 0 800 158.15"><defs><style>.cls-1,.cls-6{fill:none;}.cls-1,.cls-2,.cls-5,.cls-6{stroke:#1d1d1b;stroke-miterlimit:10;}.cls-2,.cls-3,.cls-5{fill:#fff;}.cls-2{stroke-width:1.5px;}.cls-4{fill:#1d1d1b;}.cls-6{stroke-linecap:round;stroke-width:3px;}</style></defs><title>Artboard 10@1x</title><g id="Bannière_site" data-name="Bannière site"><line class="cls-1" y1="146.39" x2="800" y2="146.39"/><rect class="cls-2" x="370.46" y="141.95" width="14.21" height="6.8" rx="3.4" transform="matrix(0, 1, -1, 0, 522.92, -232.21)"/><rect class="cls-2" x="362.35" y="143.26" width="16.82" height="6.8" rx="3.4" transform="translate(517.42 -224.1) rotate(90)"/><rect class="cls-2" x="354.58" y="144.23" width="18.76" height="6.8" rx="3.4" transform="translate(511.59 -216.33) rotate(90)"/><rect class="cls-2" x="348.51" y="143.26" width="16.82" height="6.8" rx="3.4" transform="translate(503.58 -210.26) rotate(90)"/><rect class="cls-2" x="174.71" y="139.68" width="14.21" height="6.8" rx="3.4" transform="translate(324.89 -38.74) rotate(90)"/><rect class="cls-2" x="180.21" y="140.98" width="16.82" height="6.8" rx="3.4" transform="translate(333 -44.24) rotate(90)"/><rect class="cls-2" x="186.04" y="141.95" width="18.76" height="6.8" rx="3.4" transform="translate(340.78 -50.07) rotate(90)"/><rect class="cls-2" x="194.06" y="140.98" width="16.82" height="6.8" rx="3.4" transform="translate(346.85 -58.08) rotate(90)"/><rect class="cls-2" x="489.45" y="143.09" width="14.21" height="6.8" rx="3.4" transform="translate(643.05 -350.06) rotate(90)"/><rect class="cls-2" x="494.95" y="144.4" width="16.82" height="6.8" rx="3.4" transform="translate(651.16 -355.56) rotate(90)"/><rect class="cls-2" x="500.78" y="145.37" width="18.76" height="6.8" rx="3.4" transform="translate(658.94 -361.39) rotate(90)"/><rect class="cls-2" x="508.8" y="144.4" width="16.82" height="6.8" rx="3.4" transform="translate(665.01 -369.41) rotate(90)"/><rect class="cls-2" x="656.33" y="140.81" width="14.21" height="6.8" rx="3.4" transform="translate(807.65 -519.22) rotate(90)"/><rect class="cls-2" x="648.23" y="142.12" width="16.82" height="6.8" rx="3.4" transform="translate(802.16 -511.11) rotate(90)"/><rect class="cls-2" x="640.45" y="143.09" width="18.76" height="6.8" rx="3.4" transform="translate(796.33 -503.34) rotate(90)"/><rect class="cls-2" x="634.38" y="142.12" width="16.82" height="6.8" rx="3.4" transform="translate(788.31 -497.27) rotate(90)"/><path class="cls-3" d="M575.49,154.81c-46.1-5.39-55.73-48.54-57.37-73.78l1.69-.11c.81,12.51,16.43,13.17,25.5,28,9.57,15.62,12.76,8.77,31.81,11,25.72,3,49.9,13.32,58.13-20.09l1.64.4C628.46,134.44,602.06,157.91,575.49,154.81Z"/><path class="cls-4" d="M575.49,154.81c-46.1-5.39-55.73-48.54-57.37-73.78l1.69-.11c.81,12.51,3.68,30.52,12.75,45.32,9.57,15.61,24.09,24.66,43.13,26.88,25.72,3,51.33-19.91,59.56-53.32l1.64.4C628.46,134.44,602.06,157.91,575.49,154.81Z"/><path class="cls-4" d="M630.06,111.67l2.36-5.68c4-9.65-4.78-31.3-7.92-38.47l-1.86,9-1.12-1.71c-6.33-9.64-23.66-17.52-28.44-19.56.1,2.62,0,7.63-2.25,9.14l-.59.41-.5-.53c-4.91-5.21-11.85-7.4-18.56-9.51-7.77-2.46-15.12-4.78-19.22-11.44C540.33,46,529.74,64,529.63,64.15l-1.48,2.54-.4-12.3c-6.15,9-8.65,31.84-8.67,32.08l-.23,2.11-1.29-1.68c-.11-.15-11.18-14.88-5.44-31-3.23-1.24-7.58.38-9.38,1.18-.79.35-1.14-.1-1.25-.31l-.37-.7.7-.44c5.58-3.45,9.91-8.89,14.1-14.15,9.06-11.37,17.62-22.11,36.33-9,10.55-18.34,26.28-13.17,40.19-8.6,8.93,2.93,17.37,5.71,23.45,2.07l1.85-1.11-.6,2.07A10.52,10.52,0,0,1,613.22,33c-.22.18-.43.35-.63.53h0c14.24,1.67,22.19,10.93,28.63,18.43,3.77,4.39,7,8.19,10.58,9.14l1.3.35-.88,1c-2.18,2.52-8.1,2-11.11,1.56a60.93,60.93,0,0,1,3.58,9c2.46,8,2.46,14.62,0,19.56l-.88,1.76-.67-1.85a7.12,7.12,0,0,0-1.77-2.84c-1.94,4.64-6.88,16.39-7.51,17.18Zm-6.17-49.51L625,64.43c.49,1,10.29,21.83,10.15,35.62,1.58-3.64,3.55-8.31,5-11.77l.22-.53h.57c1.32,0,2.33,1.23,3,2.36,3.76-10.91-5-26.62-5.06-26.79l-.91-1.63,1.82.39c2.88.6,7.56,1,10,.07-3.37-1.59-6.39-5.1-9.8-9.08-6.48-7.54-14.53-16.93-29.12-18L609.44,35l.74-1.18a8,8,0,0,1,2-2.09,8.22,8.22,0,0,0,2.68-3.38c-6.45,2.55-14.47-.09-22.92-2.86-14.14-4.65-28.77-9.46-38.64,8.63l-.46.84-.78-.56c-17.94-13-25.75-3.16-34.78,8.18A82,82,0,0,1,506.88,54a10.15,10.15,0,0,1,6.71.72l.66.36-.27.69C509.23,68,515,79.6,517.67,84c.88-6.71,3.9-26,10.24-32.5l1.39-1.42.35,10.85c3.47-5.27,12.5-17.54,22.58-19.43l.59-.11.3.52c3.69,6.5,10.92,8.78,18.57,11.19,6.65,2.1,13.51,4.26,18.66,9.34,1-1.61,1.19-5.7,1-8.46l-.12-1.36,1.27.5c.88.35,20.87,8.3,29.33,19.13Z"/><path class="cls-4" d="M515.41,99.33l-.4-.07c-4.37-1-5.61-8.86-4.57-14.06.32-1.61,1.28-4.47,4.08-5.5l.59,1.59c-2,.75-2.75,3-3,4.25-1,4.87.35,11.4,3.28,12.07.56.13,2.09.23,4.22-1.58l1.09,1.29C518.35,99.31,516.41,99.45,515.41,99.33Z"/><path class="cls-4" d="M635.61,115.68a9.07,9.07,0,0,1-4.26-2.81l1.26-1.13c1.2,1.34,3,2.58,4.24,2.3,1.7-.38,3.41-4,4-8.31.46-3.58-.09-6.14-.89-6.55s-2.77.32-4.36,1.65l-1.09-1.3c1.84-1.53,4.67-2.64,6.22-1.86,2.49,1.27,2,6.66,1.8,8.27-.52,4.08-2.21,9.08-5.28,9.75A3.75,3.75,0,0,1,635.61,115.68Z"/><polygon class="cls-4" points="570.81 112.93 570.64 111.25 585.91 109.65 577.58 83.82 579.19 83.3 588.16 111.11 570.81 112.93"/><path class="cls-4" d="M572,135.1c-1.17-.14-2.35-.33-3.53-.57-6.8-1.42-12-4.3-14.13-7.92l1.45-.87c1.91,3.16,6.78,5.83,13,7.13,7.64,1.59,15.16.79,19.13-2l1,1.38C585.21,134.85,578.81,135.9,572,135.1Z"/><path class="cls-4" d="M561.23,89.16c-1-3.59-4.24-5.29-6.83-6.09-6.21-1.91-14.57-.61-18.63,2.9l-1.11-1.28c4.46-3.85,13.54-5.3,20.24-3.24,4.29,1.32,7.05,3.84,8,7.27Z"/><path class="cls-4" d="M619.66,96.25c-2.53-3.52-6.7-7.83-12.1-8.33-3.91-.37-7.88,1.32-11.8,5l-1.17-1.23c4.29-4.06,8.71-5.9,13.13-5.48l.28,0c4.69.55,9.19,3.65,13,9Z"/><path class="cls-4" d="M549.83,101.37c-6.47-.76-12.56-3.16-15.38-6-4.89-4.92-6.07-13.16-5.08-18.73.62-3.56,2.09-6.05,4.11-7h0c9.83-4.61,28.83-2.82,37,3.49,2.42,1.88,3.63,5.31,3.41,9.66-.34,6.53-3.73,13.24-8.08,16S555.5,102,549.83,101.37ZM534.2,71.18c-1.49.71-2.64,2.8-3.17,5.76-.93,5.32.35,13,4.62,17.24,4.43,4.46,20.41,8.63,29.22,3.13,3.85-2.4,7-8.68,7.29-14.6.19-3.78-.79-6.71-2.76-8.23-7.58-5.89-26-7.61-35.2-3.3Z"/><path class="cls-4" d="M604.32,108.63c-5.67-.66-11.34-2.62-14.91-6.22s-5.36-11-4.18-17.38c.79-4.29,2.76-7.35,5.55-8.62,9.37-4.26,28.27-1.62,36.76,5.14,1.76,1.39,2.61,4.14,2.39,7.75-.33,5.65-3.37,13.39-9.27,17C617.27,108.46,610.79,109.39,604.32,108.63Zm3.75-32.24c-6.26-.73-12.48-.31-16.59,1.56-2.27,1-3.9,3.66-4.58,7.38-1.07,5.83.53,12.66,3.72,15.89,7.31,7.38,23.81,7,29.15,3.7,5.15-3.2,8.16-10.33,8.47-15.72.18-3-.46-5.3-1.75-6.33C622.28,79.52,615.15,77.22,608.07,76.39Z"/><rect class="cls-4" x="523.64" y="74.44" width="1.69" height="10.67" transform="translate(442.86 603.98) rotate(-89.8)"/><path class="cls-4" d="M573,84.94l-.27-1.67c4.65-.75,10.78.23,13.59,1.6l-.74,1.52C583.07,85.16,577.29,84.25,573,84.94Z"/><rect class="cls-4" x="630.4" y="89.66" width="1.69" height="5.01" transform="translate(347.12 663.33) rotate(-71.86)"/><path class="cls-3" d="M292.37,155.92c-13.1,1.11-29.41,1.19-33.48.6a57.31,57.31,0,0,1-28.56-12.18c-7-5.84-12-13.41-14.05-21.31-1.38-5.36-4.12-29.75-4.51-33.65l1.66-.31.17.63c1.61,5.89,6.48,23.73,29.24,36,20.5-17,46.82-18.54,69-3.95,24.94-16.12,28.41-42,28.44-42.3l1.69.07c.54,13.13.18,30.33-2.45,39.2-2.07,7-9.24,24.27-31.15,34.37C305.58,154.4,299.44,155.31,292.37,155.92Zm48.06-69.77a67.06,67.06,0,0,1-28.17,37.37l-.47.3-.46-.31c-21.75-14.59-47.74-13.1-67.84,3.89l-.44.37-.5-.27c-10.14-5.38-18.1-12.54-23.64-21.26-2-3.2,7.58,11,6.53,8.39,1,8.8-4.4,2.46-3.48,6.05,1.94,7.55,2.39-3.47,9.16,2.14,7.44,6.19,21.4,8.37,32.09,9.91,6.56,1,58.1-6.56,65.35-9.91"/><path class="cls-4" d="M292.37,155.92c-13.1,1.11-29.41,1.19-33.48.6a57.31,57.31,0,0,1-28.56-12.18c-7-5.84-12-13.41-14.05-21.31-1.38-5.36-4.12-29.75-4.51-33.65l1.66-.31.17.63c1.61,5.89,6.48,23.73,29.24,36,20.5-17,46.82-18.54,69-3.95,24.94-16.12,28.41-42,28.44-42.3l1.69.07c.54,13.13.18,30.33-2.45,39.2-2.07,7-9.24,24.27-31.15,34.37C305.58,154.4,299.44,155.31,292.37,155.92Zm-78-58.49c1,8.8,2.63,21.6,3.55,25.18A40.16,40.16,0,0,0,231.41,143a55.66,55.66,0,0,0,27.72,11.8c6.57.95,41.25.09,48.5-3.25,21.88-10.09,28.68-28,30.24-33.31,2.15-7.28,2.74-20.42,2.56-32.13a67.06,67.06,0,0,1-28.17,37.37l-.47.3-.46-.31c-21.75-14.59-47.74-13.1-67.84,3.89l-.44.37-.5-.27c-10.14-5.38-18.1-12.54-23.64-21.26A55.55,55.55,0,0,1,214.37,97.43Z"/><polygon class="cls-4" points="276.5 106.67 275.68 105.19 284.68 100.21 277.62 78.36 279.23 77.84 286.72 101.02 276.5 106.67"/><path class="cls-4" d="M259.08,86.94c-4.95-4.88-9.68-7.16-14.06-6.79H245c-4.35.4-8.54,3.44-12.45,9l-1.39-1c4.21-6,8.81-9.31,13.68-9.76s10.12,2,15.47,7.27Z"/><path class="cls-4" d="M297.6,83.65l-1.38-1c4.35-6.07,9-9.36,13.93-9.77h.08c4.88-.39,10,2.07,15.14,7.3l-1.2,1.19c-4.81-4.86-9.45-7.15-13.81-6.8h-.06C305.92,75,301.64,78,297.6,83.65Z"/><path class="cls-4" d="M281.14,130.19c-8.13.69-17.11-1.1-22.09-4.36l.93-1.41c8.07,5.28,28.27,6.49,34.71-1.6l1.33,1.06C293,127.7,287.3,129.66,281.14,130.19Z"/><path class="cls-4" d="M212.28,95.06l-.51-5.69c-.13-1.49-3-34.62,1.81-43.83l-3.67-.07.38-1.1c4.63-13.45,14.17-21.06,31.79-25.32l-2.32-3.62.81-.43c9-4.82,25.06-3.3,29.36-2.78l-.29-3.42.84-.07c7.8-.66,17.27,3.16,20.09,4.39l1.91-4.68.81.39c9.13,4.35,12.85,10.39,14,12.7,3.71-2,9.5-2.05,15.43,0,6.27,2.18,10.92,6.09,12.14,10.21l.2.68-3.17,1.63c2.83,3.47,13.28,17,14.32,29.25l.07.8-4.25.57c.33,2.39,1.1,9.23.11,15l-.41,2.35L340.55,80c-3.67-6.54-6.07-21.7-6.7-26L329.3,56.1,329.15,55c-1-7.93-6.7-15.6-8.37-17.71l-3.27,2.07-.42-.19c-4.76-2.21-9-7.56-10.66-9.9a41.15,41.15,0,0,1-6.32,8.06l-.28.26-.39,0a4.71,4.71,0,0,1-3.66-1.91c-7.82,6.33-13,6.65-16.81,6.87-2,.13-3.63.22-5.09,1.2l-1.74,1.17.45-2.06c.36-1.67.45-2.66,0-3.71a82.6,82.6,0,0,1-16.3,2.24c-6.59.43-11.8.77-13.43,3.87l-2.5,4.74L242,40.63C222.89,45.16,213.54,89,213.44,89.47ZM335.21,51.49l.16,1.14c0,.17,2.09,15.52,5.43,23.91a61.1,61.1,0,0,0-.58-12.43l-.14-.86,4.35-.59C342.85,49.54,330,34.51,329.91,34.35l-.7-.81L333,31.59c-1.36-3.37-5.43-6.56-10.84-8.45-5.82-2-11.62-1.9-14.77.31l-.9.63-.38-1c0-.08-2.8-7.26-12.74-12.3l-1.9,4.65-.8-.38c-.11,0-10.7-5-19.2-4.65l.33,3.81L270.74,14c-.19,0-18.6-2.61-28.55,2l2.61,4.08-1.17.27c-17.23,3.94-26.68,11-31.35,23.39l4.82.09-1.32,1.4c-4,4.23-3.54,25.91-2.72,38.59a148.35,148.35,0,0,1,6.21-18.64C226.05,49,234,40.05,242.88,38.72l1.16-.17-.63,3.57c2.78-1.85,7.33-2.15,12.74-2.5a78.81,78.81,0,0,0,16.62-2.36l.61-.18.34.55a5.67,5.67,0,0,1,.82,3.82,15.34,15.34,0,0,1,4.33-.67c3.89-.23,8.72-.53,16.49-7l.64-.54.55.63.35.45a3.16,3.16,0,0,0,2.32,1.48,40.89,40.89,0,0,0,6.4-8.55l.67-1.26.78,1.2c.05.08,4.88,7.44,10.32,10.21L321.12,35l.48.56c.31.36,7.42,8.7,9.06,18Z"/><path class="cls-4" d="M209.44,100.27a4,4,0,0,1-1.37-.12c-2.9-.82-4.54-5.13-5.06-8.57-.58-3.77-.17-8.45,2.69-10.32,2-1.3,4.72-.78,6.67-.12l-.54,1.6c-1.31-.44-3.71-1-5.2-.07-2,1.35-2.46,5.31-1.95,8.65.57,3.7,2.18,6.73,3.85,7.2,1.3.36,3.16-.74,4.45-1.89l1.13,1.26A9,9,0,0,1,209.44,100.27Z"/><path class="cls-4" d="M345.83,94.78a4.11,4.11,0,0,1-2.15-.39,6.47,6.47,0,0,1-3.2-4.54l1.65-.4a4.88,4.88,0,0,0,2.28,3.41,2.69,2.69,0,0,0,2.39-.08c2.09-1,3.43-6.63,2.8-11.82-.44-3.67-1.76-6.07-3.54-6.44-1.16-.24-2.28.76-3.59,1.92l-.22.2-1.12-1.26.22-.2c1.5-1.34,3.06-2.73,5.06-2.32,2.56.53,4.34,3.41,4.88,7.89.64,5.36-.61,12.06-3.76,13.56A5,5,0,0,1,345.83,94.78Z"/><polygon class="cls-5" points="234.54 101.61 231.07 138.95 275.68 149.98 320.86 139.22 318.41 101.61 279.53 94.14 234.54 101.61"/><line class="cls-1" x1="233.85" y1="110.17" x2="242.11" y2="114.4"/><line class="cls-1" x1="232.52" y1="122.71" x2="241.77" y2="122.16"/><line class="cls-1" x1="231.57" y1="133.95" x2="240.67" y2="132.14"/><line class="cls-1" x1="318.79" y1="111.68" x2="310.42" y2="115.67"/><line class="cls-1" x1="319.78" y1="124.24" x2="310.54" y2="123.44"/><line class="cls-1" x1="320.41" y1="135.51" x2="311.37" y2="133.44"/><path class="cls-6" d="M210.81,70s6.94,26.59,23.73,31.57"/><path class="cls-6" d="M342.15,68.47s-8.74,26.19-23.74,33.14"/><path class="cls-6" d="M223.94,137.89c1.77.19,4.79,1.86,7.14,1.06"/><path class="cls-6" d="M320.86,139.22s3.75,1,6.45,0"/><polygon class="cls-5" points="546.25 108.98 541.49 136.75 576.4 148.77 608.74 142.16 609.09 113.84 579.55 101.61 546.25 108.98"/><line class="cls-1" x1="545.24" y1="115.35" x2="551.18" y2="118.99"/><line class="cls-1" x1="543.51" y1="124.66" x2="550.48" y2="124.79"/><line class="cls-1" x1="542.15" y1="133.03" x2="549.07" y2="132.2"/><line class="cls-1" x1="608.79" y1="121.4" x2="602.28" y2="123.91"/><line class="cls-1" x1="608.8" y1="130.87" x2="601.92" y2="129.74"/><line class="cls-1" x1="608.62" y1="139.35" x2="601.97" y2="137.28"/><path class="cls-6" d="M518.12,81s7.13,22.25,28.13,28"/><path class="cls-6" d="M637,95.65s-11,15.23-27.92,18.19"/><path class="cls-6" d="M536.21,135.54c1.31.25,3.47,1.67,5.28,1.21"/><path class="cls-6" d="M608.74,142.16a9.61,9.61,0,0,0,4.83.37"/></g></svg>